<?xml version="1.0" encoding="UTF-8"?>
<!-- Created with Inkscape (http://www.inkscape.org/) -->
<svg width="21.514mm" height="21.802mm" version="1.1" viewBox="0 0 21.514 21.802" xml:space="preserve" xmlns="http://www.w3.org/2000/svg"><path d="m3.6247 2.2667c1.501-2.9351 4.2833-2.1794 4.2833-2.1794l8.0364 1.5775c2.1602 0.58882 3.5971 2.5037 3.5971 2.5037 1.6428 2.3736 1.9398 4.7825 1.9398 4.7825 0.12394 1.2941-0.14483 2.3688-0.14483 2.3688-0.54004 2.8032-3.2561 8.9059-3.2561 8.9059-1.3023 2.1649-3.5417 1.47-3.5417 1.47l-7.8631-1.9654c-2.0018-0.6736-3.2386-1.7662-3.2386-1.7662-1.8055-1.8703-2.7825-3.3692-2.7825-3.3692-1.2264-2.2279-0.35302-4.3749-0.35302-4.3749z" fill="#fff"/><g fill="#b8b8b8" stroke-width=".05"><path d="m8.4943 3.208a1.3741 1.7255 65.573 0 1-1.0028 1.9647 1.3741 1.7255 65.573 0 1-2.1393-0.53754 1.3741 1.7255 65.573 0 1 1.0028-1.9647 1.3741 1.7255 65.573 0 1 2.1393 0.53754z" stop-color="#000000"/><path d="m10.393 6.7417a1.3475 1.7255 65.573 0 1-1.0138 1.9404 1.3475 1.7255 65.573 0 1-2.1283-0.51329 1.3475 1.7255 65.573 0 1 1.0138-1.9404 1.3475 1.7255 65.573 0 1 2.1283 0.51329z" stop-color="#000000"/><path d="m14.675 4.4585a1.4203 1.7255 65.573 0 1-0.98371 2.0068 1.4203 1.7255 65.573 0 1-2.1584-0.57961 1.4203 1.7255 65.573 0 1 0.98371-2.0068 1.4203 1.7255 65.573 0 1 2.1584 0.57961z" stop-color="#000000"/><path d="m6.1771 9.0158a1.3384 1.6706 65.573 0 1-0.9676 1.9095 1.3384 1.6706 65.573 0 1-2.0746-0.52775 1.3384 1.6706 65.573 0 1 0.96761-1.9095 1.3384 1.6706 65.573 0 1 2.0746 0.52775z" stop-color="#000000"/><path d="m12.312 10.361a1.4916 1.738 65.573 0 1-0.96558 2.0769 1.4916 1.738 65.573 0 1-2.1993-0.63938 1.4916 1.738 65.573 0 1 0.96558-2.0769 1.4916 1.738 65.573 0 1 2.1993 0.63938z" stop-color="#000000"/><path d="m18.216 11.017a0.54826 1.5283 11.242 0 1 0.2398 1.6058 0.54826 1.5283 11.242 0 1-0.83568 1.392 0.54826 1.5283 11.242 0 1-0.2398-1.6058 0.54826 1.5283 11.242 0 1 0.83568-1.392z" stop-color="#000000"/><path d="m11.925 17.504a1.5283 0.49607 21.091 0 1-1.6044-0.08711 1.5283 0.49607 21.091 0 1-1.2474-1.0128 1.5283 0.49607 21.091 0 1 1.6044 0.08711 1.5283 0.49607 21.091 0 1 1.2474 1.0128z" stop-color="#000000"/><path d="m9.8724 18.158a1.5283 0.49607 21.091 0 1-1.6044-0.08711 1.5283 0.49607 21.091 0 1-1.2474-1.0128 1.5283 0.49607 21.091 0 1 1.6044 0.08711 1.5283 0.49607 21.091 0 1 1.2474 1.0128z" stop-color="#000000"/><path d="m7.9911 18.863a1.5283 0.49607 21.091 0 1-1.6044-0.08711 1.5283 0.49607 21.091 0 1-1.2474-1.0128 1.5283 0.49607 21.091 0 1 1.6044 0.08711 1.5283 0.49607 21.091 0 1 1.2474 1.0128z" stop-color="#000000"/></g></svg>
