<?xml version="1.0" encoding="UTF-8"?>
<!-- Created with Inkscape (http://www.inkscape.org/) -->
<svg width="3.5015mm" height="7.605mm" version="1.1" viewBox="0 0 3.5015 7.605" xml:space="preserve" xmlns="http://www.w3.org/2000/svg"><g><path d="m1.5678 3.2986v-2.2892l-0.53459 0.2019 0.69932-1.2113 0.68653 1.1891-0.47023-0.18438v2.3439l0.5974 0.5974v0.22654l-0.51595-0.42863v0.19484l0.50593 0.36765v0.31263l-0.50049-0.36609v0.15351l0.5145 0.37166v0.24539l-0.56834-0.43497v0.4709h-0.41299v-0.5102l-0.5097 0.43804v-0.29592l0.46964-0.38932v-0.15077l-0.50938 0.37746v-0.29346l0.47174-0.33243v-0.21095l-0.45921 0.38057v-0.3136z" fill="#fff"/><path d="m1.251 2.4696-0.012044 0.71622-0.54748 0.52348-0.00558 1.1061s-0.45791 0.47788 0.085213 0.70981l0.64173-0.11012 0.25837-0.00955c-0.41134 0.62114 0.082176 0.49353 0.082176 0.49353l0.11112 0.016924s0.33674 0.021365-0.018458-0.52115l0.33234-0.00703s0.25036 0.1035 0.55365 0.1253c0 0 0.51365-0.33562 0.070631-0.76253l-0.0097207-1.1113-0.52156-0.48318-0.0079084-0.71373s0.95494 0.2646 1.1913 1.0712l0.046689 1.0732s-0.12892 0.55466-0.26044 0.59136l0.00791 0.41855c0.082546 0.5403-0.64083 0.41069-0.64083 0.41069l-0.090781 0.10965s0.078257 0.63174-0.49374 0.54454l-0.59029 0.00655c-0.43942-0.0085905-0.33955-0.48275-0.33955-0.48275l-0.24811-0.226c-0.86901 0.015451-0.54348-0.38399-0.54348-0.38399s0.086288-0.11144-0.00414-0.35446c0 0-0.19957-0.26532-0.29801-0.94251l0.023836-0.77288s0.1952-0.79491 0.97206-0.981z" fill="#4d8b1a"/><path d="m0.76331 6.3438 0.11417 0.00767 0.34902 0.64894 1.0453 0.015814 0.39234-0.69293 0.18121-0.00325-0.025059 0.65639-0.75474 0.62853-0.70909-0.03229-0.61827-0.57693z" fill="#4d8b1a"/></g></svg>
