<?xml version="1.0" encoding="UTF-8"?>
<!-- Created with Inkscape (http://www.inkscape.org/) -->
<svg width="3.3358mm" height="7.7593mm" version="1.1" viewBox="0 0 3.3358 7.7593" xml:space="preserve" xmlns="http://www.w3.org/2000/svg"><g><path d="m1.4256 3.8178 0.46658 0.099215-2.91e-4 1.5966 0.68591 0.62433 0.021008 0.39606-0.58955-0.46789v0.20576l0.5887 0.47996v0.39517l-0.59906-0.47969v0.2141l0.6015 0.43989v0.43798l-0.70039-0.68155v0.65676h-0.48947v-0.61273l-0.59562 0.57824v-0.43041l0.52422-0.46577v-0.16752l-0.56022 0.43781v-0.37587l0.57927-0.47623v-0.22831l-0.5949 0.50505v-0.42588l0.64461-0.57958z" fill="#fff"/><g fill="#8c8e8c"><path d="m1.1297 3.4418 1.056 0.25985 0.96986-0.11083-0.84792-0.39407z"/><path d="m0.86201 3.1512 0.096814 0.45619-0.95883 0.041217z"/><path d="m1.068 3.3067 1.2972-0.29076v-0.31243l-1.2966 0.10378z"/><path d="m2.4881 2.8139v-0.55096l0.84771 0.22714z"/><path d="m1.8401 2.7146h-0.78644v-0.19974z"/><path d="m2.3359 2.6045-2.116-0.39091 0.91211-0.2519 1.1945 0.32296z"/><path d="m2.3642 2.1469v-0.37796l-1.0278 0.18578z"/><path d="m1.0458 1.8378v-0.48743h1.1441l0.57881-0.26617-0.42563 0.559z"/><path d="m0.9019 1.5301-0.50726-0.65964 0.77904 0.31255h-0.28562z"/></g><path d="m1.308 1.1747v-0.2094h0.7247v0.19894z" fill="#fff"/><path d="m1.1574 0.8876 0.51246-0.8876 0.51013 0.88357z" fill="#fff"/></g></svg>
