<?xml version="1.0" encoding="UTF-8"?>
<!-- Created with Inkscape (http://www.inkscape.org/) -->
<svg width="1.7627mm" height="7.3619mm" version="1.1" viewBox="0 0 1.7627 7.3619" xml:space="preserve" xmlns="http://www.w3.org/2000/svg"><path d="m0.63124 3.9235v1.1814l-0.63124 0.63124v0.42135l0.52644-0.52644v0.26516l-0.52514 0.52514v0.30161l0.54971-0.54971v0.24401l-0.52541 0.52541v0.38536l0.61181-0.61182v0.64567h0.4833v-0.6534l0.62382 0.62382v-0.40639l-0.49623-0.49623v-0.18962l0.5144 0.5144v-0.42949l-0.5088-0.5088v-0.14535l0.48555 0.48555v-0.49401l-0.59403-0.59403v-1.149z" fill="#fff"/><g fill="#8a888a" stroke-width=".05"><path d="m0.30171 2.2739h1.1982v0.53618h-1.1982z" stop-color="#000000"/><path d="m0.30171 1.4904s0.59644-0.24882 1.1982 0v0.53618h-1.1982z" stop-color="#000000"/><path d="m0.30171 3.0186h1.1982v0.53618c-0.56495 0.23052-1.1982 0-1.1982 0z" stop-color="#000000"/></g><path d="m0.56921 1.0074h0.63621v0.17826h-0.63621z" fill="#fff" stop-color="#000000" stroke-width=".05"/><path d="m0.34412 0.93871 0.54197-0.93871 0.53379 0.92456z" fill="#fff"/></svg>
