<?xml version="1.0" encoding="UTF-8"?>
<!-- Created with Inkscape (http://www.inkscape.org/) -->
<svg width="2.5287mm" height="4.0333mm" version="1.1" viewBox="0 0 2.5287 4.0333" xml:space="preserve" xmlns="http://www.w3.org/2000/svg"><g fill="#fff"><path d="m1.1229 2.2714h0.27644v1.7619h-0.27644z" stroke-width=".26458"/><path d="m1.0582 2.9422-0.3662 0.57768 0.36618 0.35455z"/><path d="m1.4622 2.9418 0.3662 0.57768-0.36618 0.35455z"/><path d="m1.0664 1.5072h0.40516v0.71688h-0.40516z" stroke-width=".26458"/><path d="m0 2.1836 0.15482 0.1957 0.68311-0.43917 0.00319-0.29852z"/><path d="m1.3689 1.2571 0.22367 0.16323 0.93609-0.62981-0.18939-0.1927z"/></g><g fill="#966a41"><path d="m0.38057 1.7024s-0.074862-0.57823 0.13586-0.86383c0.005111 0.25862 0.14274 0.48549 0.14274 0.48549 0.12754-1.2403 0.82015-1.3241 0.82015-1.3241s-0.064672 0.33443 0.071851 0.41479c0.1217 0.071634 0.12355 0.20219 0.14828 0.40216l-0.29652 0.20222s-0.094075 4.933e-4 -0.10402-0.18045c-0.057418 0.16925-0.016521 0.23854-0.016521 0.23854z"/><path d="m0.68288 2.2601 0.15646-0.058488 0.10176 0.15424-0.096854 0.10416s-0.11121-0.069701-0.16137-0.19991z"/><path d="m1.5873 2.3212 0.034011 0.15487s0.67738-0.26884 0.49459-1.14l-0.38869 0.20674c0.044884 0.8236-0.13991 0.77844-0.13991 0.77844z"/></g></svg>
