<?xml version="1.0" encoding="UTF-8"?>
<!-- Created with Inkscape (http://www.inkscape.org/) -->
<svg width="1.3954mm" height="4.2273mm" version="1.1" viewBox="0 0 1.3954 4.2273" xml:space="preserve" xmlns="http://www.w3.org/2000/svg"><g fill="#fff"><path d="m0.53162 1.8749h0.35184v2.3525h-0.35184z" stroke-width=".26458"/><g><path d="m0.014023 3.5059 0.023855 0.21353 0.22871-0.20674-0.16048 0.25965 0.11583 0.090658 0.14978-0.2151-0.10389 0.27315 0.20438 0.1358v-1.2508z"/><path d="m1.3954 3.5063-0.023855 0.21353-0.22871-0.20674 0.16048 0.25965-0.11583 0.090658-0.14978-0.2151 0.10389 0.27315-0.20438 0.1358v-1.2508z"/><path d="m0.15336 0.88809c-0.18223 0.094436-0.18146 0.29399-0.10409 0.30009 0.14673 0.10677 1.0387 0.17 1.2477-0.013928 0.22072-0.10844-0.060554-0.29325-0.11215-0.31031-0.074547-0.109-0.024374-0.25502-0.14526-0.52233-0.097111-0.13803-0.10816-0.07873-0.23723-0.30764-0.096278-0.047487-0.17456-0.049725-0.26519 0.022498-0.056498 0.14911-0.20459 0.2349-0.20459 0.2349-0.13756 0.12975-0.070299 0.34638-0.17919 0.59672z"/><path d="m0.46192 1.3609 0.44408-0.00392s-0.00853 0.16538-0.21401 0.19653c-0.20548 0.03116-0.23007-0.19261-0.23007-0.19261z"/></g></g></svg>
