<?xml version="1.0" encoding="UTF-8"?>
<!-- Created with Inkscape (http://www.inkscape.org/) -->
<svg width="3.5738mm" height="6.8729mm" version="1.1" viewBox="0 0 3.5738 6.8729" xml:space="preserve" xmlns="http://www.w3.org/2000/svg"><g><g fill="#fff"><rect x="1.5091" y="1.4472" width=".42656" height="3.379"/><path d="m1.3949 2.5587-0.67592 1.2119 0.15172 0.26678 0.22919-0.27418-0.19497 0.42099 0.15046 0.13368 0.19683-0.21265-0.085172 0.3283 0.21288 0.17326z"/><path d="m2.0775 2.5733 0.67592 1.2119-0.15172 0.26678-0.22919-0.27418 0.19497 0.42099-0.15046 0.13368-0.19683-0.21265 0.085172 0.3283-0.21288 0.17326z"/><path d="m1.5528 1.2802-0.25651-0.33472 0.44091-0.94547 0.41119 0.96047-0.25132 0.31297z"/></g><path d="m1.0708 2.1089-0.024715 0.18033s-0.61429 0.71386-0.71485 1.1842c0 0-0.06554 0.71346 0.24809 1.3693l0.49724 0.036571s0.18799 0.35647 0.40286 0.48523l0.57221-0.011774c0.11698-0.029463 0.44588-0.48149 0.44588-0.48149l0.50282-0.022862s0.11278-0.4207 0.093322-0.62551c0.18572-0.47556 0.09592-0.93289 0.09592-0.93289-0.11693-0.40123-0.7265-1.111-0.7265-1.111l0.059568-0.16361s1.0694 0.63359 1.0411 1.0096l0.010123 0.82218c-0.031736 0.21256-0.28815 0.94135-0.28815 0.94135 0.16288 0.21965-0.13592 0.56466-0.13592 0.56466-0.57175-0.15727-0.57757 0.32923-0.90204 0.55544l-0.92799 0.05799c-0.23623-0.13751-0.29288-0.72683-0.99025-0.69704-0.012454-0.52194-0.26777-1.4227-0.26777-1.4227-0.13646-0.25613-0.0039396-0.98443-0.0039396-0.98443 0.22925-0.63513 1.013-0.75342 1.013-0.75342z" fill="#4a821c"/><path d="m0.70574 5.6106 0.14668 0.00591 0.35498 0.65287 0.91924-5.292e-4 0.47382-0.59381 0.22608 0.00989-0.024146 0.56481-0.71766 0.62309-0.75814-0.00432-0.64785-0.8426z" fill="#4a821c"/></g></svg>
