<?xml version="1.0" encoding="UTF-8"?>
<!-- Created with Inkscape (http://www.inkscape.org/) -->
<svg width="3.1891mm" height="6.1417mm" version="1.1" viewBox="0 0 3.1891 6.1417" xml:space="preserve" xmlns="http://www.w3.org/2000/svg"><g transform="matrix(.79261 0 0 .90151 1.1419 3.2863)" fill="#fff" stroke-width=".26458"><path d="m0.10098 1.4328 1.0449-0.00635-0.01092 1.5628 0.067413 0.00648 0.01937 0.17155-1.2195-0.00154-0.00218-0.18502 0.088703-0.00391z"/><path d="m0.12725 0.947s0.44042-2.1307 0.9783 0v0.28384h-0.9783z"/></g><path d="m0.81966 4.1835s0.23101-0.802 0.17774-1.1501c0.76097-0.86749 0.66602-1.4815 0.66602-1.4815s0.51792 0.57662 0.40333 1.6793c0.27991-0.17762 0.27966-0.58007 0.27966-0.58007 0.2762 0.71839 0.093115 1.5452 0.093115 1.5452 1.0311-0.39376 0.67124-1.8329 0.67124-1.8329-0.1806-0.47758 0.078281-0.92135 0.078281-0.92135s-0.37684-0.19912-0.60681 0.55788c0 0-0.071523-0.77726-0.60003-1.3728-0.17963-0.12105 0.10451-0.62712 0.10451-0.62712s-1.4239 0.4126-1.4381 2.3187c-0.3417-0.17893-0.32453-0.86312-0.32453-0.86312s-0.99217 1.3829 0.49559 2.7279z" fill="#8f6238"/></svg>
