<?xml version="1.0" encoding="UTF-8"?>
<!-- Created with Inkscape (http://www.inkscape.org/) -->
<svg width="3.8427mm" height="6.1839mm" version="1.1" viewBox="0 0 3.8427 6.1839" xml:space="preserve" xmlns="http://www.w3.org/2000/svg"><g transform="translate(1.1903 3.0165)" fill="#fff" stroke-width=".26458"><path d="m0.10098 1.4328 1.0449-0.00635-0.01092 1.5628 0.067413 0.00648 0.01937 0.17155-1.2195-0.00154-0.00218-0.18502 0.088703-0.00391z"/><path d="m0.12725 0.947s0.44042-2.1307 0.9783 0v0.28384h-0.9783z"/></g><path d="m0.086374 3.6503c0.68463-1.9978 1.7407-2.409 1.7407-2.409 0.99325 0.55535 1.448 2.3805 1.448 2.3805 0.39489-0.94287-0.96083-2.6968-0.96083-2.6968 0.0376-0.26539 1.5285-0.47055 1.5285-0.47055-0.75035-0.68172-1.9642 0.1149-1.9642 0.1149-1.8481-1.3513-1.8785 0.12698-1.8785 0.12698s0.52978-0.64858 1.407 0.04517c0 0-1.0357 0.85906-1.3207 2.9088z" fill="#902c2b"/></svg>
