<?xml version="1.0" encoding="UTF-8"?>
<!-- Created with Inkscape (http://www.inkscape.org/) -->
<svg width="3.4972mm" height="6.1301mm" version="1.1" viewBox="0 0 3.4972 6.1301" xml:space="preserve" xmlns="http://www.w3.org/2000/svg"><g transform="matrix(.81934 0 0 .85151 1.223 0)" fill="#fff" stroke-width=".26458"><path d="m0.10098 1.4328 1.0449-0.00635-0.01092 1.5628 0.067413 0.00648 0.01937 0.17155-1.2195-0.00154-0.00218-0.18502 0.088703-0.00391z"/><path d="m0.12725 0.947s0.44042-2.1307 0.9783 0v0.28384h-0.9783z"/></g><path d="m0.93 1.4005c-0.49747-0.055123-0.88962 0.73265-0.88962 0.73265-0.063333 0.67006-0.033218 0.86114-0.033218 0.86114 0.082551 0.64362 0.30987 0.99984 0.30987 0.99984-0.31736 0.32216 0.061014 0.53717 0.061014 0.53717 0.66477 0.067098 0.67042 0.37022 0.67042 0.37022-0.015043 0.4225 0.35981 0.34849 0.35981 0.34849l0.62647-0.027509s0.3238 0.11389 0.34828-0.30805c0.086058-0.2401 0.38824-0.35179 0.38824-0.35179 0.66982 0.20818 0.37247-0.47663 0.37247-0.47663-0.028972-0.086518 0.089748-0.37005 0.089748-0.37005 0.86194-1.8704-0.66468-2.3475-0.66468-2.3475l-0.021786 0.99309 0.15201 0.15426-0.033871 0.58147-1.8396-0.033549-0.036998-0.66581 0.19213-0.10905z" fill="#4a7f1e"/><path d="m0.65747 4.8676 0.042968 0.75868 0.67098 0.50376 0.67933-0.035835 0.5152-0.31623 0.16911-0.85989-0.22905 0.086984-0.023722 0.30135-0.3238 0.23186-0.86649 0.0079084-0.31084-0.13321-0.17745-0.5472z" fill="#4a7f1e"/></svg>
