<?xml version="1.0" encoding="UTF-8"?>
<!-- Created with Inkscape (http://www.inkscape.org/) -->
<svg width="3.3198mm" height="8.6777mm" version="1.1" viewBox="0 0 3.3198 8.6777" xml:space="preserve" xmlns="http://www.w3.org/2000/svg"><g fill="#fff"><g transform="matrix(1 0 0 .90244 .91521 0)"><path d="m0.074848 0h1.3665v0.83247h-1.3665z" stop-color="#000000" stroke-width=".05"/><path d="m0.074848 0.93423h1.3665v2.7424l0.082029-0.00141-5.001e-4 0.22468-1.5193 0.00106-0.00351-0.22432h0.074851z" stroke-width=".090751"/></g><rect x="1.2792" y="3.6196" width=".74707" height="5.0581" stop-color="#000000" stroke-width=".05"/><path d="m1.01 5.5166-1.01 1.692 0.30764 0.3719 0.36614-0.51832-0.24697 0.69436 0.21016 0.13586 0.28881-0.54112-0.17232 0.6879 0.28397 0.24827z"/><path d="m2.3098 5.5515 1.01 1.692-0.30764 0.3719-0.36614-0.51832 0.24697 0.69436-0.21016 0.13586-0.28881-0.54112 0.17232 0.6879-0.28397 0.24827z"/></g></svg>
