<?xml version="1.0" encoding="UTF-8"?>
<!-- Created with Inkscape (http://www.inkscape.org/) -->
<svg width="2.7967mm" height="4.0129mm" version="1.1" viewBox="0 0 2.7967 4.0129" xml:space="preserve" xmlns="http://www.w3.org/2000/svg"><g fill="#fff"><path d="m1.2075 1.8721h0.33205v2.1408h-0.33205z" stroke-width=".05"/><g><path d="m1.1449 2.5581v1.2729l-0.45321-0.45321z"/><path d="m1.6124 2.5578v1.2729l0.45321-0.45321z"/><path d="m1.246 1.7962-0.12752-0.22087 0.26097-0.57749 0.2741 0.57445-0.13022 0.22555z"/></g></g><g fill="#94823c"><path d="m1.18 0.82147 0.21431-0.82147 0.21019 0.82454z"/><path d="m1.0069 1.3432-0.78441-0.70964 0.58407 1.3186-0.80652-0.48689 0.8124 0.88878-0.24045 0.24818 0.45195-0.22935z"/><path d="m1.7501 1.3263 0.11575 0.28098-0.15612 0.26665 0.010864 0.53269 0.39512 0.20277-0.17136-0.27325 0.85233-0.85881-0.84015 0.45564 0.60008-1.2765z"/></g></svg>
