<?xml version="1.0" encoding="UTF-8"?>
<!-- Created with Inkscape (http://www.inkscape.org/) -->
<svg width="3.6923mm" height="7.7814mm" version="1.1" viewBox="0 0 3.6923 7.7814" xml:space="preserve" xmlns="http://www.w3.org/2000/svg"><g transform="translate(1.3349 2.8979)" fill="#fff" stroke-width=".05"><path d="m0.10346 2.3042 0.09706-0.13894-8.931e-4 -0.37851 0.77907 0.00305 0.00998 0.37496 0.10434 0.13945v2.2623l0.096412-0.00389 0.010071 0.31941-1.1995 0.00138 0.00699-0.30825 0.09646-0.00864z"/><path d="m0.23668 0.87774s0.31339-1.9749 0.72547 0v0.74648h-0.72547z"/></g><path d="m1.1236 4.804c-0.034932-2.5389 0.76393-2.5843 0.76393-2.5843 0.11364-0.011273 0.013327-0.50824 0.013327-0.50824s0.56337 0.50219 0.68716 1.6315c0.088481-0.011329 0.16269-0.28294 0.16269-0.28294 0.25703 0.36999-0.069389 1.8071-0.069389 1.8071 1.2283-0.13795 0.95581-2.2736 0.95581-2.2736-0.24098-0.4228 0.055204-1.0076 0.055204-1.0076s-0.59023 0.029286-0.66789 0.61502c0 0-0.24786-0.83879-0.68502-1.4043-0.13542-0.094323 0.062784-0.79655 0.062784-0.79655s-1.6376 0.52495-1.5938 2.6408c-0.44587-0.057561-0.41786-1.0356-0.41786-1.0356s-1.2545 2.4028 0.73303 3.1987z" fill="#9e6c3e"/></svg>
