<?xml version="1.0" encoding="UTF-8"?>
<!-- Created with Inkscape (http://www.inkscape.org/) -->
<svg width="5.5504mm" height="8.0102mm" version="1.1" viewBox="0 0 5.5504 8.0102" xml:space="preserve" xmlns="http://www.w3.org/2000/svg"><g transform="translate(2.1343)" fill="#fff" stroke-width=".05"><path d="m0.10346 2.3042 0.09706-0.13894-8.931e-4 -0.37851 0.77907 0.00305 0.00998 0.37496 0.10434 0.13945v2.2623l0.096412-0.00389 0.010071 0.31941-1.1995 0.00138 0.00699-0.30825 0.09646-0.00864z"/><path d="m0.23668 0.87774s0.31339-1.9749 0.72547 0v0.74648h-0.72547z"/></g><g fill="#898889"><path d="m2.0623 0.26283-1.0355 6.5034 0.11366-4.9866-1.1405 0.48405z"/><path d="m3.4881 0.26283 1.0355 6.5034-0.11366-4.9866 1.1405 0.48405z"/><path d="m2.3962 5.5317-0.18996 0.29076 0.21057 1.1778 0.18153-1.2179z"/><path d="m3.1657 6.2265-0.21178 0.36712 0.22403 1.4166 0.17082-1.3489z"/></g></svg>
