<?xml version="1.0" encoding="UTF-8"?>
<!-- Created with Inkscape (http://www.inkscape.org/) -->
<svg width="3.8298mm" height="7.6692mm" version="1.1" viewBox="0 0 3.8298 7.6692" xml:space="preserve" xmlns="http://www.w3.org/2000/svg"><g transform="translate(1.3093)" fill="#fff" stroke-width=".05"><path d="m0.10346 2.3042 0.09706-0.13894-8.931e-4 -0.37851 0.77907 0.00305 0.00998 0.37496 0.10434 0.13945v2.2623l0.096412-0.00389 0.010071 0.31941-1.1995 0.00138 0.00699-0.30825 0.09646-0.00864z"/><path d="m0.23668 0.87774s0.31339-1.9749 0.72547 0v0.74648h-0.72547z"/></g><g transform="matrix(1.0951 0 0 1.131 0 .73622)" fill="#4a7f1e"><path d="m0.93 1.4005c-0.49747-0.055123-0.88962 0.73265-0.88962 0.73265-0.063333 0.67006-0.033218 0.86114-0.033218 0.86114 0.082551 0.64362 0.30987 0.99984 0.30987 0.99984-0.31736 0.32216 0.061014 0.53717 0.061014 0.53717 0.66477 0.067098 0.67042 0.37022 0.67042 0.37022-0.015043 0.4225 0.35981 0.34849 0.35981 0.34849l0.62647-0.027509s0.3238 0.11389 0.34828-0.30805c0.086058-0.2401 0.38824-0.35179 0.38824-0.35179 0.66982 0.20818 0.37247-0.47663 0.37247-0.47663-0.028972-0.086518 0.089748-0.37005 0.089748-0.37005 0.86194-1.8704-0.66468-2.3475-0.66468-2.3475l0.013693 1.8286c0.64551 0.90295 0.021955 0.9321 0.021955 0.9321l-0.56113-0.15446-0.56027 0.0043063-0.63808 0.16591s-0.66865-0.078751 0.07564-0.97888z"/><path d="m0.65747 4.8676 0.042968 0.75868 0.67098 0.50376 0.67933-0.035835 0.5152-0.31623 0.16911-0.85989-0.22905 0.086984-0.023722 0.30135-0.3238 0.23186-0.86649 0.0079084-0.31084-0.13321-0.17745-0.5472z"/></g></svg>
