<?xml version="1.0" encoding="UTF-8"?>
<!-- Created with Inkscape (http://www.inkscape.org/) -->
<svg width="4.7014mm" height="7.4047mm" version="1.1" viewBox="0 0 4.7014 7.4047" xml:space="preserve" xmlns="http://www.w3.org/2000/svg"><g transform="translate(1.7605 2.5213)" fill="#fff" stroke-width=".05"><path d="m0.10346 2.3042 0.09706-0.13894-8.931e-4 -0.37851 0.77907 0.00305 0.00998 0.37496 0.10434 0.13945v2.2623l0.096412-0.00389 0.010071 0.31941-1.1995 0.00138 0.00699-0.30825 0.09646-0.00864z"/><path d="m0.23668 0.87774s0.31339-1.9749 0.72547 0v0.74648h-0.72547z"/></g><g fill="#918239"><path d="m1.6811 4.5667c-0.066235-1.4715 0.19887-1.871 0.19887-1.871l-1.4488-1.4413 1.0033 2.296-0.038561 0.18405-1.3958-1.0447 1.4074 1.6232-0.32746 0.46325z"/><path d="m1.9499 2.3432s0.3888-0.62314 0.83934 0.00262l-0.42549-2.3458z"/><path d="m2.8723 2.7787 1.4257-1.5088-1.0637 2.415 1.4671-0.96741-1.3893 1.6403 0.31614 0.44048-0.60766-0.23988c0.047098-1.5777-0.14822-1.7796-0.14822-1.7796z"/></g></svg>
