<?xml version="1.0" encoding="UTF-8"?>
<!-- Created with Inkscape (http://www.inkscape.org/) -->
<svg width="3.3621mm" height="7.0667mm" version="1.1" viewBox="0 0 3.3621 7.0667" xml:space="preserve" xmlns="http://www.w3.org/2000/svg"><g transform="translate(1.0492 2.8276)" fill="#fff" stroke-width=".05"><path d="m0.10379 1.6904 0.12636-0.11445-0.00243-0.38086 0.89006 9.494e-4 -1.947e-4 0.38632 0.080842 0.11775 0.00504 2.1761 0.14318-1.884e-4 -8.928e-4 0.35845-1.3458 0.00464 0.00599-0.36289h0.097803z"/><path d="m0.2357 0.54438s0.38469-1.2249 0.90024 0v0.44953h-0.90024z"/></g><path d="m0.84154 4.3861s-0.028607-1.657 0.83917-2.1408c0.12105 0.00157 0.037466-0.68452 0.037466-0.68452s0.28261 0.29724 0.36634 0.75415c0 0 0.042561 0.65847 0.43832 0.63926 0 0-0.064803 1.2526 0.038101 1.5115 0 0 0.66083-0.18584 0.71776-0.91715 0.19364-0.46576-0.010758-1.2189-0.010758-1.2189-0.14917-0.29258 0.076299-0.8192 0.076299-0.8192-0.37985-0.11206-0.59418 0.48536-0.59418 0.48536s-0.31226-0.89402-0.65921-1.2502c-0.095116-0.32528 0.08248-0.74559 0.08248-0.74559-1.5003 0.31382-1.4493 2.4957-1.4493 2.4957-0.33123-0.22592-0.35454-1.0046-0.35454-1.0046-1.0502 2.1688 0.47205 2.895 0.47205 2.895z" fill="#a46f43"/></svg>
