<?xml version="1.0" encoding="UTF-8"?>
<!-- Created with Inkscape (http://www.inkscape.org/) -->
<svg width="3.8427mm" height="6.9031mm" version="1.1" viewBox="0 0 3.8427 6.9031" xml:space="preserve" xmlns="http://www.w3.org/2000/svg"><g transform="translate(1.0908 2.664)" fill="#fff"><path d="m0.10379 1.6904 0.12636-0.11445-0.00243-0.38086 0.89006 9.494e-4 -1.947e-4 0.38632 0.080842 0.11775 0.00504 2.1761 0.14318-1.884e-4 -8.928e-4 0.35845-1.3458 0.00464 0.00599-0.36289h0.097803z"/><path d="m0.2357 0.54438s0.38469-1.2249 0.90024 0v0.44953h-0.90024z"/></g><path d="m0.086374 3.6503c0.68463-1.9978 1.7407-2.409 1.7407-2.409 0.99325 0.55535 1.448 2.3805 1.448 2.3805 0.39489-0.94287-0.96083-2.6968-0.96083-2.6968 0.037599-0.26539 1.5285-0.47055 1.5285-0.47055-0.75035-0.68172-1.9642 0.1149-1.9642 0.1149-1.8481-1.3513-1.8785 0.12698-1.8785 0.12698s0.52978-0.64858 1.407 0.045174c0 0-1.0357 0.85906-1.3207 2.9088z" fill="#902c2b"/></svg>
