<?xml version="1.0" encoding="UTF-8"?>
<!-- Created with Inkscape (http://www.inkscape.org/) -->
<svg width="4.6113mm" height="6.7207mm" version="1.1" viewBox="0 0 4.6113 6.7207" xml:space="preserve" xmlns="http://www.w3.org/2000/svg"><g transform="translate(1.648 2.4815)" fill="#fff" stroke-width=".05"><path d="m0.10379 1.6904 0.12636-0.11445-0.00243-0.38086 0.89006 9.494e-4 -1.947e-4 0.38632 0.080842 0.11775 0.00504 2.1761 0.14318-1.884e-4 -8.928e-4 0.35845-1.3458 0.00464 0.00599-0.36289h0.097803z"/><path d="m0.2357 0.54438s0.38469-1.2249 0.90024 0v0.44953h-0.90024z"/></g><g fill="#938239"><path d="m1.4081 4.5673c0.1153-1.7372 0.30565-1.9454 0.30565-1.9454l-1.2687-1.3841 0.8852 2.3261-1.3303-0.90832 1.2938 1.5339-0.28545 0.56043z"/><path d="m1.9478 2.2346s0.43516-0.43288 0.77163-0.00519l-0.35794-2.2294z"/><path d="m2.9471 2.5396s0.18148-0.00716 0.28723 2.034l0.40516 0.14943-0.32271-0.42005 1.2944-1.5598-1.3281 0.79786 1.0092-2.3188z"/></g></svg>
