<?xml version="1.0" encoding="UTF-8"?>
<!-- Created with Inkscape (http://www.inkscape.org/) -->
<svg width="3.6942mm" height="7.4475mm" version="1.1" viewBox="0 0 3.6942 7.4475" xml:space="preserve" xmlns="http://www.w3.org/2000/svg"><g transform="translate(1.1864)" fill="#fff" stroke-width=".05"><path d="m0.10379 1.6904 0.12636-0.11445-0.00243-0.38086 0.89006 9.494e-4 -1.947e-4 0.38632 0.080842 0.11775 0.00504 2.1761 0.14318-1.884e-4 -8.928e-4 0.35845-1.3458 0.00464 0.00599-0.36289h0.097803z"/><path d="m0.2357 0.54438s0.38469-1.2249 0.90024 0v0.44953h-0.90024z"/></g><path d="m0.8101 2.2915c-0.61492 0.063275-0.78205 0.94462-0.78205 0.94462l-0.028048 0.74854s0.069752 0.85397 0.31 0.92514c0 0 0.099207 0.26107-0.088205 0.44142 0 0-0.099734 0.33937 0.33961 0.39569l0.30866-0.00541s0.30594 0.20305 0.26153 0.29453c0 0-0.08889 0.36307 0.37463 0.41548l0.68535-0.00167c0.44279 0.11925 0.35838-0.41496 0.35838-0.41496 0.0074735-0.15826 0.28761-0.27233 0.28761-0.27233 0.79206 0.095132 0.60197-0.49689 0.60197-0.49689-0.077068-0.21437 0.13235-0.63745 0.13235-0.63745 0.1244 0.013772 0.12231-0.66773 0.12231-0.66773l-0.0054-0.83451c0.010643-0.59581-0.78567-0.80081-0.78567-0.80081l-0.013923 1.3401s0.16754 0.11565 0.12957 0.26719l0.026693 0.48557s0.38927 0.37148-0.026085 0.81236c0 0-0.70656-0.00222-0.93541-0.39027l-0.45385 0.00791s-0.18836 0.40542-0.94653 0.39979c0 0-0.31429-0.24727 7.409e-4 -0.78571 0 0 0.020921-0.66125 0.11859-0.75929z" fill="#4c881c"/><path d="m0.7483 6.0967 0.16855 0.015814 0.082572 0.38985 0.37547 0.3169 0.98385 0.027677 0.36067-0.32618 0.11224-0.42622 0.16303-0.018817-0.10864 0.79873-0.66585 0.5723-0.68514 7.673e-4 -0.76288-0.66834z" fill="#4c881c"/></svg>
