<?xml version="1.0" encoding="UTF-8"?>
<!-- Created with Inkscape (http://www.inkscape.org/) -->
<svg width="4.5848mm" height="7.3005mm" version="1.1" viewBox="0 0 4.5848 7.3005" xml:space="preserve" xmlns="http://www.w3.org/2000/svg"><g transform="translate(1.7112 2.4533)" fill="#fff"><path d="m0.10937 1.0848h1.016v3.5472l0.056464-0.00627 0.013756 0.20925-1.1956 0.012275 0.00293-0.21526h0.10644z" stop-color="#000000" stroke-width=".05"/><path d="m0.11098 0.47553s0.49044-1.0699 1.0159 0v0.43079h-1.0159z" stop-color="#000000" stroke-width=".05659"/></g><g fill="#a08d42"><path d="m1.5475 4.4088c-0.16448-1.8032 0.14519-1.9166 0.14519-1.9166l-1.3163-1.317 0.93982 2.0988-0.015814 0.29567-1.3004-0.95179 1.3979 1.6063-0.33443 0.47196z"/><path d="m1.9487 2.2249s0.44534-0.30703 0.76939 0.014052l-0.35677-2.2389z"/><path d="m2.958 2.5153s0.223 0.047996 0.16489 1.9761l0.49329 0.19199-0.32109-0.45111 1.2897-1.5476-1.2719 0.89679-0.0032279-0.29897 0.91631-2.0317z"/></g></svg>
