<?xml version="1.0" encoding="UTF-8"?>
<!-- Created with Inkscape (http://www.inkscape.org/) -->
<svg width="3.8427mm" height="7.3894mm" version="1.1" viewBox="0 0 3.8427 7.3894" xml:space="preserve" xmlns="http://www.w3.org/2000/svg"><g transform="translate(1.1645 2.5422)" fill="#fff"><path d="m0.10937 1.0848h1.016v3.5472l0.056464-0.00627 0.013756 0.20925-1.1956 0.012275 0.00293-0.21526h0.10644z" stop-color="#000000" stroke-width=".05"/><path d="m0.11098 0.47553s0.49044-1.0699 1.0159 0v0.43079h-1.0159z" stop-color="#000000" stroke-width=".05659"/></g><path d="m0.086374 3.6503c0.68463-1.9978 1.7407-2.409 1.7407-2.409 0.99325 0.55535 1.448 2.3805 1.448 2.3805 0.39489-0.94287-0.96083-2.6968-0.96083-2.6968 0.037599-0.26539 1.5285-0.47055 1.5285-0.47055-0.75035-0.68172-1.9642 0.1149-1.9642 0.1149-1.8481-1.3513-1.8785 0.12698-1.8785 0.12698s0.52978-0.64858 1.407 0.045174c0 0-1.0357 0.85906-1.3207 2.9088z" fill="#902c2b"/></svg>
