<?xml version="1.0" encoding="UTF-8"?>
<!-- Created with Inkscape (http://www.inkscape.org/) -->
<svg width="2.9711mm" height="7.4167mm" version="1.1" viewBox="0 0 2.9711 7.4167" xml:space="preserve" xmlns="http://www.w3.org/2000/svg"><g transform="translate(.74249 3.5158)" fill="#fff"><path d="m0.074848 0h1.3665v0.83247h-1.3665z" stop-color="#000000" stroke-width=".05"/><path d="m0.074848 0.93423h1.3665v2.7424l0.082029-0.00141-5.001e-4 0.22468-1.5193 0.00106-0.00351-0.22432h0.074851z" stroke-width=".090751"/></g><g fill="#858785"><path d="m2.1598 3.1312c-1.0318 0.088849-1.2089-0.43969-1.2089-0.43969l0.07278-0.35109c-0.56133 0.15197-0.42321-0.52582-0.42321-0.52582s0.78614-0.86494 1.2885-0.30016c0 0 0.08498 0.42917-0.39339 0.70257 0.87907 0.093994 0.83473 0.64225 0.83473 0.64225z"/><path d="m0.33121 1.447-0.31024-0.23436c-0.17415-1.2196 0.79358-1.2127 0.79358-1.2127l0.20494 0.18966c0.13392 0.77091-0.68828 1.2574-0.68828 1.2574z"/><path d="m1.541 0.66251 0.00403-0.35909s0.99356-0.47316 1.4261 0.32917l-0.043571 0.26657c-0.64143 0.5035-1.3865-0.23664-1.3865-0.23664z"/></g></svg>
