<?xml version="1.0" encoding="UTF-8"?>
<!-- Created with Inkscape (http://www.inkscape.org/) -->
<svg width="3.2223mm" height="7.5757mm" version="1.1" viewBox="0 0 3.2223 7.5757" xml:space="preserve" xmlns="http://www.w3.org/2000/svg"><g transform="translate(.91133 3.6747)" fill="#fff"><path d="m0.074848 0h1.3665v0.83247h-1.3665z" stop-color="#000000" stroke-width=".05"/><path d="m0.074848 0.93423h1.3665v2.7424l0.082029-0.00141-5.001e-4 0.22468-1.5193 0.00106-0.00351-0.22432h0.074851z" stroke-width=".090751"/></g><g fill="#999"><path d="m1.2615 2.7795h0.68843v0.16094h-0.68843z" stop-color="#000000" stroke-width=".05"/><path d="m1.4142 3.0205h0.42648v0.1698h-0.42648z" stop-color="#000000" stroke-width=".05"/><path d="m1.2994 2.6732h0.6222v-0.3695c1.1606-0.75349 0-1.4588 0-1.4588h-0.57831s-1.2215 0.75553-0.028028 1.4731z"/><path d="m0 1.3081h0.59385v0.16351h-0.59385z" stop-color="#000000" stroke-width=".05"/><path d="m2.6285 1.3081h0.59385v0.16351h-0.59385z" stop-color="#000000" stroke-width=".05"/><g stroke-width=".050081"><path d="m1.5408 0.594h0.164v-0.594h-0.164z" stop-color="#000000"/><path d="m0.8612 0.85771 0.10827-0.12318-0.44614-0.39217-0.10827 0.12318z" stop-color="#000000"/><path d="m2.3838 0.84822-0.10827-0.12318 0.44614-0.39217 0.10827 0.12318z" stop-color="#000000"/></g></g></svg>
