<?xml version="1.0" encoding="UTF-8"?>
<!-- Created with Inkscape (http://www.inkscape.org/) -->
<svg width="4.3523mm" height="8.2473mm" version="1.1" viewBox="0 0 4.3523 8.2473" xml:space="preserve" xmlns="http://www.w3.org/2000/svg"><g transform="translate(1.3773 4.3463)" fill="#fff"><path d="m0.074848 0h1.3665v0.83247h-1.3665z" stop-color="#000000" stroke-width=".05"/><path d="m0.074848 0.93423h1.3665v2.7424l0.082029-0.00141-5.001e-4 0.22468-1.5193 0.00106-0.00351-0.22432h0.074851z" stroke-width=".090751"/></g><g fill="#a46d42"><path d="m1.0373 6.2778s0.064614-0.48127-0.24736-0.71452c-0.085088-0.6531 0.25451-1.0253 0.25451-1.0253 0.0088323-0.54535 0.50299-0.75995 0.50299-0.75995 0.43258-0.16775 0.42103-1.0113 0.42103-1.0113s0.50497 0.36245 0.52826 1.0308c0 0 0.81551 0.091156 0.79514 0.73053 0.39559 0.56324-0.033549 1.1843-0.033549 1.1843-0.099001 0.18082 0 0.49582 0 0.49582 0.51283-0.26201 0.8012-0.94727 0.8012-0.94727s-0.1659 0.14752-0.37298 0.069512c0.48745-0.82752 0.28711-1.6356 0.28711-1.6356s-0.16013 0.42921-0.35031 0.40684c-0.3769-0.31735 0.061825-0.77188 0.061825-0.77188 0.11292-0.52434-0.22667-0.84392-0.22667-0.84392-0.1527-0.087312-0.1677-0.67181-0.1677-0.67181s-0.047315 0.35548-0.33228 0.86865c-0.45364-0.31934-0.25062-0.8467-0.25062-0.8467 0.35489-0.61914-0.51039-1.3243-0.51039-1.3243s-0.075371 0.7206-0.44983 0.92507c-0.31087 0.31195-0.45791 0.89241-0.45791 0.89241-0.09899 0.11792-0.29425 0.071506-0.29425 0.071506 0.18513-0.76881-0.20295-1.1182-0.20295-1.1182s0.031562 0.20512-0.39545 1.0431c0 0-0.064926 0.7966 0.047152 1.2043-0.24459-0.046895-0.44195-0.31991-0.44195-0.31991s-0.065018 0.93206 0.4976 1.834c0 0-0.1764 0.058788-0.41953-0.096954 0 0 0.068359 1.1843 0.95692 1.3308z"/><path d="m1.255 1.4093s0.24052-0.14153 0.15406-0.52645c-0.10544-0.20999 0.03008-0.57192 0.03008-0.57192s-0.31684 0.091395-0.36694 0.48115c0 0 0.09569 0.50383 0.1828 0.61722z"/><path d="m3.0913 1.1826c-0.28313-0.29868-0.11082-0.56061-0.11082-0.56061 0.16737-0.20034-0.04532-0.622-0.04532-0.622s0.3806 0.13118 0.48923 0.52174c-0.030649 0.33297-0.33309 0.66088-0.33309 0.66088z"/><path d="m4.0746 2.077s-0.00796 0.3812 0.22819 0.51697c0 0 0.14894 0.41296-0.070081 0.52513-0.039226-0.2984-0.32263-0.58729-0.32263-0.58729-0.15845-0.20457 0.16452-0.45481 0.16452-0.45481z"/></g></svg>
